<?xml version="1.0" standalone="no"?>
<!DOCTYPE svg PUBLIC "-//W3C//DTD SVG 20010904//EN"
 "http://www.w3.org/TR/2001/REC-SVG-20010904/DTD/svg10.dtd">
<svg version="1.0" xmlns="http://www.w3.org/2000/svg"
 width="390.000000pt" height="118.000000pt" viewBox="0 0 390.000000 118.000000"
 preserveAspectRatio="xMidYMid meet">
<metadata>
Created by potrace 1.16, written by Peter Selinger 2001-2019
</metadata>
<g transform="translate(0.000000,118.000000) scale(0.100000,-0.100000)"
fill="#000000" stroke="none">
<path d="M105 1008 c-3 -7 -4 -135 -3 -283 l3 -270 70 0 70 0 3 89 c2 50 -4
123 -13 170 -20 112 -19 113 18 21 18 -44 44 -100 57 -125 24 -42 28 -45 70
-48 25 -1 50 1 56 5 14 10 87 154 104 206 20 62 23 35 5 -45 -10 -48 -15 -107
-13 -173 l3 -100 70 0 70 0 0 280 0 280 -70 0 -70 0 -70 -137 c-38 -76 -72
-138 -75 -138 -3 0 -36 62 -75 138 l-70 137 -68 3 c-48 2 -69 -1 -72 -10z"/>
<path d="M755 1007 c-3 -7 -4 -134 -3 -282 l3 -270 69 -3 c49 -2 72 1 77 10
10 15 12 518 3 542 -8 21 -142 23 -149 3z"/>
<path d="M985 1007 c-3 -7 -4 -134 -3 -282 l3 -270 71 -3 c84 -3 84 -4 84 116
l0 73 28 -3 c23 -2 34 -16 68 -82 23 -44 50 -86 60 -93 11 -8 45 -13 86 -13
61 0 68 2 68 20 0 11 -21 59 -46 105 l-46 86 26 24 c36 34 56 84 56 144 0 87
-31 138 -105 172 -33 15 -66 19 -193 19 -114 0 -154 -3 -157 -13z"/>
<path d="M1733 1008 c-20 -32 -200 -544 -194 -551 5 -4 39 -7 76 -5 71 3 75 6
95 61 9 27 10 27 99 27 l89 0 7 -30 c11 -50 29 -60 105 -60 45 0 69 4 72 13 5
11 -177 518 -195 545 -11 17 -143 16 -154 0z"/>
<path d="M2935 1007 c-3 -7 -4 -134 -3 -282 l3 -270 187 -3 187 -2 7 46 c4 27
2 55 -5 70 -10 23 -14 24 -116 24 l-105 0 0 199 c0 110 -3 206 -6 215 -8 21
-142 23 -149 3z"/>
<path d="M3395 1008 c-3 -8 -4 -135 -3 -283 l3 -270 200 0 200 0 3 59 c2 41
-1 62 -10 67 -7 5 -66 9 -131 9 l-118 0 3 38 3 37 100 5 100 5 3 59 c2 41 -1
62 -10 67 -7 5 -55 9 -105 9 l-93 0 0 35 0 34 123 3 122 3 0 65 0 65 -193 3
c-150 2 -194 0 -197 -10z"/>
</g>
</svg>
